<svg width="800" height="800" viewBox="0 0 800 800" fill="none" xmlns="http://www.w3.org/2000/svg">
<path d="M478.802 390.302C473.446 368.87 451.73 355.838 430.298 361.198C408.866 366.554 395.834 388.27 401.194 409.702L478.802 390.302ZM499.997 640.001L461.194 649.701C465.642 667.509 481.641 680.001 499.997 680.001C518.353 680.001 534.353 667.509 538.801 649.701L499.997 640.001ZM598.801 409.702C604.161 388.27 591.129 366.554 569.697 361.198C548.265 355.838 526.549 368.87 521.193 390.302L598.801 409.702ZM359.998 680.001C382.09 680.001 399.998 662.093 399.998 640.001C399.998 617.909 382.09 600.001 359.998 600.001V680.001ZM359.998 440.002C382.09 440.002 399.998 422.094 399.998 400.002C399.998 377.91 382.09 360.002 359.998 360.002V440.002ZM479.997 47.1962C479.997 25.1047 462.09 7.19644 439.998 7.19644C417.906 7.19644 399.998 25.1047 399.998 47.1962H479.997ZM672.796 320.002C694.888 320.002 712.796 302.094 712.796 280.003C712.796 257.912 694.888 240.003 672.796 240.003V320.002ZM551.997 720H247.999V800H551.997V720ZM160 632.001V168.003H80.0001V632.001H160ZM247.999 80.0037H386.978V0.00407391H247.999V80.0037ZM639.996 333.022V632.001H719.996V333.022H639.996ZM386.978 80.0037C408.45 80.0037 412.666 80.2609 416.198 81.1089L434.874 3.31966C419.994 -0.253123 404.642 0.00407391 386.978 0.00407391V80.0037ZM505.773 49.2098C493.281 36.7203 482.609 25.6835 469.562 17.6872L427.762 85.898C430.858 87.7964 434.022 90.5956 449.206 105.778L505.773 49.2098ZM416.198 81.1089C420.282 82.0888 424.182 83.7048 427.762 85.898L469.562 17.6872C458.826 11.1076 447.118 6.25924 434.874 3.31966L416.198 81.1089ZM247.999 720C224.937 720 210.046 719.968 198.713 719.044C187.846 718.156 183.817 716.648 181.84 715.64L145.521 786.92C160.656 794.632 176.385 797.484 192.198 798.776C207.545 800.032 226.257 800 247.999 800V720ZM80.0001 632.001C80.0001 653.745 79.9689 672.457 81.2229 687.801C82.5149 703.616 85.3676 719.344 93.0792 734.48L164.359 698.161C163.352 696.181 161.844 692.153 160.957 681.289C160.031 669.953 160 655.065 160 632.001H80.0001ZM181.84 715.64C174.313 711.804 168.194 705.688 164.359 698.161L93.0792 734.48C104.584 757.06 122.941 775.416 145.521 786.92L181.84 715.64ZM551.997 800C573.741 800 592.453 800.032 607.797 798.776C623.613 797.484 639.34 794.632 654.476 786.92L618.157 715.64C616.177 716.648 612.149 718.156 601.285 719.044C589.949 719.968 575.061 720 551.997 720V800ZM639.996 632.001C639.996 655.065 639.965 669.953 639.041 681.289C638.153 692.153 636.645 696.181 635.637 698.161L706.916 734.48C714.628 719.344 717.48 703.616 718.772 687.801C720.028 672.457 719.996 653.745 719.996 632.001H639.996ZM654.476 786.92C677.056 775.416 695.412 757.06 706.916 734.48L635.637 698.161C631.801 705.688 625.685 711.804 618.157 715.64L654.476 786.92ZM614.221 270.797C629.405 285.979 632.205 289.142 634.101 292.24L702.312 250.44C694.316 237.391 683.28 226.718 670.788 214.228L614.221 270.797ZM719.996 333.022C719.996 315.358 720.252 300.007 716.68 285.126L638.892 303.802C639.74 307.335 639.996 311.55 639.996 333.022H719.996ZM634.101 292.24C636.296 295.819 637.913 299.721 638.892 303.802L716.68 285.126C713.74 272.882 708.892 261.177 702.312 250.44L634.101 292.24ZM160 168.003C160 144.941 160.031 130.05 160.957 118.717C161.844 107.85 163.352 103.822 164.359 101.844L93.0792 65.5249C85.3676 80.6601 82.5149 96.3888 81.2229 112.202C79.9689 127.549 80.0001 146.261 80.0001 168.003H160ZM247.999 0.00407391C226.257 0.00407391 207.545 -0.0271248 192.198 1.22687C176.385 2.51886 160.656 5.37165 145.521 13.0832L181.84 84.3633C183.817 83.3557 187.846 81.8485 198.713 80.9609C210.046 80.0349 224.937 80.0037 247.999 80.0037V0.00407391ZM164.359 101.844C168.194 94.3176 174.313 88.1984 181.84 84.3633L145.521 13.0832C122.941 24.588 104.584 42.9455 93.0792 65.5249L164.359 101.844ZM401.194 409.702L461.194 649.701L538.801 630.301L478.802 390.302L401.194 409.702ZM538.801 649.701L598.801 409.702L521.193 390.302L461.194 630.301L538.801 649.701ZM359.998 600.001C340.814 600.001 328.426 599.981 318.949 599.333C309.829 598.709 306.356 597.645 304.691 596.957L274.077 670.865C287.114 676.265 300.31 678.245 313.503 679.149C326.338 680.021 341.906 680.001 359.998 680.001V600.001ZM199.999 520.001C199.999 538.093 199.978 553.661 200.853 566.497C201.753 579.689 203.734 592.885 209.134 605.925L283.044 575.309C282.354 573.645 281.29 570.169 280.667 561.049C280.02 551.573 279.999 539.185 279.999 520.001H199.999ZM304.691 596.957C294.89 592.897 287.103 585.109 283.044 575.309L209.134 605.925C221.313 635.325 244.674 658.689 274.077 670.865L304.691 596.957ZM359.998 360.002C341.906 360.002 326.338 359.982 313.503 360.854C300.31 361.758 287.114 363.738 274.077 369.138L304.691 443.046C306.356 442.358 309.829 441.294 318.949 440.67C328.426 440.022 340.814 440.002 359.998 440.002V360.002ZM279.999 520.001C279.999 500.818 280.02 488.43 280.667 478.954C281.29 469.834 282.354 466.358 283.044 464.694L209.134 434.078C203.734 447.118 201.753 460.314 200.853 473.506C199.978 486.342 199.999 501.91 199.999 520.001H279.999ZM274.077 369.138C244.673 381.314 221.313 404.678 209.134 434.078L283.044 464.694C287.103 454.894 294.89 447.106 304.691 443.046L274.077 369.138ZM399.998 47.1962V240.003H479.997V47.1962H399.998ZM479.997 320.002H672.796V240.003H479.997V320.002ZM399.998 240.003C399.998 284.185 435.814 320.002 479.997 320.002V240.003H399.998ZM449.206 105.778L614.221 270.797L670.788 214.228L505.773 49.2098L449.206 105.778Z" fill="#bababaff"/>
</svg>
