<svg width="35" height="35" viewBox="0 0 35 35" fill="none" xmlns="http://www.w3.org/2000/svg">
<g clip-path="url(#clip0_3_2)">
<path d="M18.44 34.68C17.4551 34.6796 16.4719 34.5993 15.5 34.44C10.7462 33.6599 6.49632 31.0249 3.68386 27.1137C0.871389 23.2025 -0.273726 18.3349 0.500017 13.58C0.932985 10.8731 1.97648 8.30029 3.55142 6.05662C5.12633 3.81288 7.19138 1.95713 9.59002 0.629998C9.9947 0.403888 10.4558 0.298765 10.9185 0.327129C11.3812 0.355493 11.826 0.516152 12.2 0.789996C12.5823 1.05158 12.8804 1.41863 13.0579 1.84649C13.2354 2.27435 13.2848 2.74459 13.2 3.2C12.5061 6.881 13.0845 10.8088 14.9578 14.0525C16.831 17.2963 19.8049 19.7612 23.34 21C26.0624 21.9448 28.9911 22.128 31.81 21.53C32.2561 21.4424 32.7177 21.4812 33.1429 21.642C33.568 21.8028 33.9399 22.0791 34.2164 22.4399C34.493 22.8006 34.6632 23.2315 34.708 23.6838C34.7528 24.1361 34.6704 24.592 34.47 25C32.9277 27.916 30.621 30.3574 27.7972 32.0627C24.9733 33.7679 21.7388 34.6726 18.44 34.68Z" fill="#4123ff"/>
</g>
<defs>
<clipPath id="clip0_3_2">
<rect width="35" height="35" fill="white"/>
</clipPath>
</defs>
</svg>
