<svg width="35" height="35" viewBox="0 0 800 800" fill="none" xmlns="http://www.w3.org/2000/svg">
<path d="M421.486 792.686C398.974 792.676 376.501 790.842 354.286 787.2C245.627 769.369 148.487 709.14 84.2021 619.741C19.9171 530.342 -6.25696 419.083 11.4286 310.4C21.325 248.528 45.1764 189.721 81.1749 138.437C117.173 87.1516 164.374 44.7344 219.2 14.4C228.45 9.23178 238.989 6.82895 249.565 7.47728C260.141 8.1256 270.308 11.7978 278.857 18.0571C287.596 24.0362 294.408 32.4259 298.466 42.2056C302.524 51.9853 303.653 62.7336 301.714 73.1429C285.853 157.28 299.075 247.058 341.892 321.201C384.709 395.345 452.684 451.685 533.486 480C595.711 501.595 662.653 505.784 727.086 492.114C737.281 490.113 747.833 491 757.551 494.675C767.269 498.349 775.768 504.665 782.089 512.911C788.41 521.157 792.302 531.005 793.326 541.344C794.35 551.683 792.466 562.103 787.886 571.429C752.633 638.08 699.909 693.884 635.364 732.861C570.819 771.837 496.886 792.517 421.486 792.686ZM243.886 66.0571C200.167 90.8467 162.154 124.56 132.319 165.004C102.484 205.448 81.4946 251.719 70.7153 300.808C59.9361 349.896 59.6084 400.704 69.7534 449.927C79.8985 499.151 100.289 545.688 129.6 586.514C164.928 635.897 212.238 675.482 267.078 701.544C321.919 727.607 382.488 739.29 443.088 735.495C503.688 731.701 562.327 712.553 613.488 679.853C664.649 647.153 706.651 601.976 735.543 548.571C662.023 563.35 585.895 558.302 514.971 533.943C421.389 501.13 342.627 435.932 292.913 350.126C243.198 264.32 225.808 163.563 243.886 66.0571Z" fill="#2600ff"/>
</svg>
