<svg width="207" height="206" viewBox="0 0 207 206" fill="none" xmlns="http://www.w3.org/2000/svg">
<path fill-rule="evenodd" clip-rule="evenodd" d="M103.493 1.15625C46.342 1.15625 0 47.6755 0 105.073C0 150.975 29.6527 189.922 70.7875 203.665C75.9625 204.619 77.8514 201.411 77.8514 198.657C77.8514 196.189 77.7607 189.656 77.709 180.986C48.9166 187.266 42.8426 167.056 42.8426 167.056C38.1398 155.054 31.3541 151.859 31.3541 151.859C21.955 145.41 32.0655 145.539 32.0655 145.539C42.4479 146.273 47.9139 156.249 47.9139 156.249C57.1513 172.128 72.1395 167.543 78.039 164.88C78.977 158.165 81.655 153.586 84.6112 150.989C61.6278 148.365 37.4669 139.454 37.4669 99.6373C37.4669 88.2916 41.4971 79.0175 48.1211 71.7503C47.0537 69.12 43.5024 58.5602 49.1302 44.2531C49.1302 44.2531 57.8241 41.4604 77.5926 54.9038C85.8532 52.5983 94.7026 51.4488 103.507 51.4033C112.298 51.4488 121.153 52.5983 129.42 54.9038C149.176 41.4604 157.851 44.2531 157.851 44.2531C163.498 58.5602 159.946 69.12 158.879 71.7503C165.516 79.0175 169.52 88.2916 169.52 99.6373C169.52 139.552 145.32 148.339 122.266 150.91C125.979 154.119 129.291 160.457 129.291 170.153C129.291 184.045 129.162 195.248 129.162 198.657C129.162 201.437 131.025 204.671 136.277 203.651C177.373 189.883 207 150.962 207 105.073C207 47.6755 160.658 1.15625 103.493 1.15625Z" fill="#3E75C3"/>
</svg>
