<svg width="258" height="258" viewBox="0 0 258 258" fill="none" xmlns="http://www.w3.org/2000/svg">
<g clip-path="url(#clip0_4_2)">
<path fill-rule="evenodd" clip-rule="evenodd" d="M129 0C57.7275 0 0 59.1877 0 132.263C0 190.789 36.9262 240.223 88.2037 257.747C94.6537 258.905 97.0725 254.937 97.0725 251.465C97.0725 248.324 96.9113 237.908 96.9113 226.831C64.5 232.948 56.115 218.73 53.535 211.29C52.0837 207.487 45.795 195.749 40.3125 192.608C35.7975 190.128 29.3475 184.011 40.1513 183.845C50.31 183.68 57.5663 193.434 59.985 197.402C71.595 217.407 90.1388 211.786 97.5563 208.314C98.685 199.717 102.071 193.93 105.78 190.624C77.0775 187.317 47.085 175.91 47.085 125.319C47.085 110.936 52.0838 99.0319 60.3075 89.7734C59.0175 86.4669 54.5025 72.9099 61.5975 54.7238C61.5975 54.7238 72.4013 51.2519 97.0725 68.2807C107.392 65.3048 118.358 63.8169 129.323 63.8169C140.288 63.8169 151.253 65.3048 161.573 68.2807C186.244 51.0866 197.048 54.7238 197.048 54.7238C204.143 72.9099 199.628 86.4669 198.338 89.7734C206.561 99.0319 211.56 110.77 211.56 125.319C211.56 176.075 181.406 187.317 152.704 190.624C157.38 194.757 161.411 202.693 161.411 215.093C161.411 232.783 161.25 247.001 161.25 251.465C161.25 254.937 163.669 259.07 170.119 257.747C221.074 240.223 258 190.624 258 132.263C258 59.1877 200.273 0 129 0Z" fill="#BABABA"/>
</g>
<defs>
<clipPath id="clip0_4_2">
<rect width="258" height="258" fill="white"/>
</clipPath>
</defs>
</svg>
