<svg width="250" height="250" viewBox="0 0 144 144" fill="none" xmlns="http://www.w3.org/2000/svg">
<g clip-path="url(#clip0_2_352)">
<mask id="mask0_2_352" style="mask-type:luminance" maskUnits="userSpaceOnUse" x="9" y="0" width="126" height="144">
<path d="M68.568 0.906433L12.395 33.3294C11.3629 33.9242 10.5057 34.7803 9.90967 35.8117C9.31367 36.843 8.99992 38.0132 9 39.2044V104.094C8.99972 105.286 9.31337 106.456 9.90939 107.487C10.5054 108.519 11.3627 109.375 12.395 109.969L68.572 142.417C69.6041 143.011 70.7741 143.324 71.965 143.324C73.1559 143.324 74.3259 143.011 75.358 142.417L131.526 109.969C132.556 109.373 133.411 108.516 134.005 107.485C134.599 106.454 134.913 105.285 134.913 104.094V39.2044C134.913 38.0127 134.598 36.8421 134.001 35.8106C133.405 34.7792 132.546 33.9234 131.513 33.3294L75.353 0.906433C74.3183 0.31253 73.146 0 71.953 0C70.76 0 69.5877 0.31253 68.553 0.906433" fill="white"/>
</mask>
<g mask="url(#mask0_2_352)">
<path d="M191.678 27.8244L33.392 -49.7626L-47.768 115.802L110.514 193.393L191.678 27.8244Z" fill="url(#paint0_linear_2_352)"/>
</g>
<mask id="mask1_2_352" style="mask-type:luminance" maskUnits="userSpaceOnUse" x="10" y="0" width="124" height="144">
<path d="M10.392 108.214C10.9361 108.926 11.6159 109.522 12.392 109.969L60.578 137.802L68.6049 142.416C69.7904 143.098 71.1536 143.407 72.517 143.302C72.9682 143.265 73.4147 143.183 73.85 143.058L133.096 34.5784C132.635 34.084 132.103 33.6616 131.517 33.3254L94.736 12.0854L75.293 0.898438C74.7405 0.585399 74.1486 0.347921 73.533 0.192413L10.392 108.214Z" fill="white"/>
</mask>
<g mask="url(#mask1_2_352)">
<path d="M-58.045 50.7724L53.7209 202.042L201.534 92.8344L89.761 -58.4316L-58.045 50.7724Z" fill="url(#paint1_linear_2_352)"/>
</g>
<mask id="mask2_2_352" style="mask-type:luminance" maskUnits="userSpaceOnUse" x="12" y="0" width="123" height="144">
<path d="M71.282 0.0374146C70.3268 0.133961 69.4025 0.430034 68.569 0.906433L12.556 33.2364L72.956 143.249C73.796 143.129 74.622 142.849 75.369 142.417L131.542 109.969C132.39 109.479 133.122 108.81 133.689 108.01C134.255 107.21 134.641 106.298 134.822 105.334L73.249 0.148438C72.7969 0.058014 72.337 0.0124427 71.876 0.0124207C71.689 0.0124207 71.5019 0.0214216 71.3159 0.0384216" fill="white"/>
</mask>
<g mask="url(#mask2_2_352)">
<path d="M12.555 0.0124207H134.799V143.252H12.555V0.0124207Z" fill="url(#paint2_linear_2_352)"/>
</g>
</g>
<defs>
<linearGradient id="paint0_linear_2_352" x1="-19414.7" y1="-9583.25" x2="-19495.9" y2="-9417.7" gradientUnits="userSpaceOnUse">
<stop stop-color="#3E863D"/>
<stop offset="0.3" stop-color="#3E863D"/>
<stop offset="0.5" stop-color="#55934F"/>
<stop offset="0.8" stop-color="#5AAD45"/>
<stop offset="1" stop-color="#5AAD45"/>
</linearGradient>
<linearGradient id="paint1_linear_2_352" x1="19159.7" y1="26059.8" x2="19307.5" y2="25950.5" gradientUnits="userSpaceOnUse">
<stop stop-color="#3E863D"/>
<stop offset="0.57" stop-color="#3E863D"/>
<stop offset="0.72" stop-color="#619857"/>
<stop offset="1" stop-color="#76AC64"/>
</linearGradient>
<linearGradient id="paint2_linear_2_352" x1="12.664" y1="29418" x2="134.89" y2="29418" gradientUnits="userSpaceOnUse">
<stop stop-color="#6BBF47"/>
<stop offset="0.16" stop-color="#6BBF47"/>
<stop offset="0.38" stop-color="#79B461"/>
<stop offset="0.47" stop-color="#75AC64"/>
<stop offset="0.7" stop-color="#659E5A"/>
<stop offset="0.9" stop-color="#3E863D"/>
<stop offset="1" stop-color="#3E863D"/>
</linearGradient>
<clipPath id="clip0_2_352">
<rect width="143.32" height="143.32" fill="white"/>
</clipPath>
</defs>
</svg>
