<svg width="258" height="258" viewBox="0 0 258 258" fill="none" xmlns="http://www.w3.org/2000/svg">
<g clip-path="url(#clip0_4_2)">
<path d="M234.596 196.012L146.141 8.11358C145.041 5.8016 143.338 3.82985 141.21 2.40698C139.082 0.984118 136.61 0.163059 134.054 0.0306928C131.493 -0.140966 128.934 0.392998 126.655 1.57452C124.377 2.75603 122.466 4.53987 121.13 6.73203L25.1907 162.164C23.7319 164.511 22.9722 167.225 23.0006 169.988C23.0291 172.752 23.8445 175.45 25.3513 177.766L72.2562 250.423C74.0307 253.15 76.6392 255.231 79.6926 256.354C82.7459 257.478 86.0805 257.583 89.1989 256.656L225.318 216.381C227.368 215.782 229.265 214.749 230.881 213.353C232.498 211.957 233.795 210.231 234.687 208.29C235.566 206.359 236.014 204.26 236 202.139C235.985 200.017 235.508 197.924 234.603 196.006L234.596 196.012ZM214.792 204.071L99.2873 238.235C95.7636 239.284 92.3814 236.229 93.1144 232.672L134.382 35.0238C135.153 31.3261 140.258 30.7402 141.872 34.1624L218.264 196.43C218.602 197.153 218.779 197.941 218.783 198.739C218.787 199.537 218.618 200.326 218.287 201.053C217.956 201.779 217.472 202.425 216.868 202.946C216.264 203.467 215.553 203.851 214.787 204.07L214.792 204.071Z" fill="white"/>
</g>
<defs>
<clipPath id="clip0_4_2">
<rect width="213" height="258" fill="white" transform="translate(23)"/>
</clipPath>
</defs>
</svg>
