<svg width="260" height="250" viewBox="0 0 18 17" fill="none" xmlns="http://www.w3.org/2000/svg">
<g clip-path="url(#clip0_2_112)">
<path d="M9.78942 16.8373C9.53809 17.1536 9.02406 16.9778 9.02406 16.5757V12.7153C9.02406 12.2472 8.6405 11.8679 8.16713 11.8679H3.85764C3.50917 11.8679 3.30592 11.478 3.50917 11.1979L6.34242 7.27455C6.74808 6.7136 6.34242 5.93393 5.64478 5.93393H0.429306C0.0808365 5.93393 -0.122289 5.54409 0.0808377 5.26402L3.75389 0.177566C3.83471 0.066183 3.96446 0 4.10236 0H15.0481C15.3966 0 15.5997 0.389837 15.3966 0.669907L12.5632 4.59331C12.1577 5.15425 12.5632 5.93393 13.261 5.93393H17.5706C17.9279 5.93393 18.1287 6.34152 17.9076 6.61997L9.78942 16.8373Z" fill="#863BFF"/>
<mask id="mask0_2_112" style="mask-type:alpha" maskUnits="userSpaceOnUse" x="0" y="0" width="18" height="17">
<path d="M9.72146 16.8372C9.47186 17.1536 8.96142 16.9776 8.96142 16.5757V12.7152C8.96142 12.2472 8.58051 11.8678 8.11043 11.8678H3.83086C3.48481 11.8678 3.28298 11.4779 3.48481 11.1979L6.29839 7.27452C6.70123 6.71357 6.29839 5.9339 5.60558 5.9339H0.426325C0.0802753 5.9339 -0.121439 5.54407 0.0802764 5.264L3.72783 0.177565C3.8081 0.0661828 3.93694 0 4.07388 0H14.9437C15.2897 0 15.4914 0.389835 15.2897 0.669905L12.476 4.59329C12.0733 5.15422 12.476 5.9339 13.1689 5.9339H17.4486C17.8035 5.9339 18.0028 6.34149 17.7833 6.61995L9.72146 16.8372Z" fill="black"/>
</mask>
<g mask="url(#mask0_2_112)">
<g filter="url(#filter0_f_2_112)">
<path d="M9.38895 13.8362C9.39266 14.9759 6.91906 15.9079 3.86402 15.9178C0.808975 15.9276 -1.67064 15.0117 -1.67434 13.8719C-1.67805 12.7322 0.795542 11.8002 3.85059 11.7903C6.90563 11.7805 9.38524 12.6964 9.38895 13.8362Z" fill="#EDE6FF"/>
</g>
<g filter="url(#filter1_f_2_112)">
<path d="M7.67719 6.77736C7.68419 8.92929 2.66207 10.69 -3.54003 10.71C-9.74214 10.73 -14.7756 9.0018 -14.7826 6.84987C-14.7896 4.69794 -9.7675 2.93723 -3.56539 2.91721C2.63671 2.89719 7.67018 4.62544 7.67719 6.77736Z" fill="#EDE6FF"/>
</g>
<g filter="url(#filter2_f_2_112)">
<path d="M7.72074 6.23143C7.72445 7.37119 2.59264 8.31172 -3.74148 8.33217C-10.0756 8.35261 -15.2134 7.44524 -15.2171 6.30548C-15.2208 5.16573 -10.089 4.2252 -3.75491 4.20475C2.57921 4.1843 7.71703 5.09168 7.72074 6.23143Z" fill="#7E14FF"/>
</g>
<g filter="url(#filter3_f_2_112)">
<path d="M9.53402 12.975C9.53773 14.1148 4.3871 15.0554 -1.97024 15.0759C-8.32757 15.0964 -13.4842 14.1891 -13.4879 13.0494C-13.4916 11.9096 -8.341 10.969 -1.98367 10.9485C4.37367 10.928 9.53032 11.8353 9.53402 12.975Z" fill="#7E14FF"/>
</g>
<g filter="url(#filter4_f_2_112)">
<path d="M10.1104 13.4055C10.1141 14.5452 4.96349 15.4858 -1.39384 15.5064C-7.75118 15.5269 -12.9078 14.6196 -12.9115 13.4798C-12.9152 12.3401 -7.76461 11.3995 -1.40727 11.3789C4.95006 11.3584 10.1067 12.2657 10.1104 13.4055Z" fill="#7E14FF"/>
</g>
<g filter="url(#filter5_f_2_112)">
<path d="M11.6965 3.83479C11.8674 0.927997 15.7182 -1.21194 20.2975 -0.944905C24.8768 -0.677865 28.4506 1.89503 28.2797 4.80183C28.1088 7.70862 24.258 9.84856 19.6787 9.58152C15.0994 9.31448 11.5257 6.74158 11.6965 3.83479Z" fill="#EDE6FF"/>
</g>
<g filter="url(#filter6_f_2_112)">
<path d="M12.3162 5.74629C12.3037 5.0283 15.9144 4.38385 20.3809 4.30689C24.8474 4.22993 28.4784 4.74959 28.4908 5.46759C28.5033 6.18558 24.8926 6.83003 20.4261 6.90699C15.9596 6.98395 12.3287 6.46429 12.3162 5.74629Z" fill="#7E14FF"/>
</g>
<g filter="url(#filter7_f_2_112)">
<path d="M12.3162 5.74629C12.3037 5.0283 15.9144 4.38385 20.3809 4.30689C24.8474 4.22993 28.4784 4.74959 28.4908 5.46759C28.5033 6.18558 24.8926 6.83003 20.4261 6.90699C15.9596 6.98395 12.3287 6.46429 12.3162 5.74629Z" fill="#7E14FF"/>
</g>
<g filter="url(#filter8_f_2_112)">
<path d="M-6.82149 11.7755C-6.11512 12.3556 -2.42342 9.05881 1.42417 4.41187C5.27176 -0.235063 7.81823 -4.47245 7.11187 -5.05259C6.4055 -5.63273 2.71379 -2.33594 -1.1338 2.311C-4.98139 6.95794 -7.52785 11.1953 -6.82149 11.7755Z" fill="#7E14FF"/>
</g>
<g filter="url(#filter9_f_2_112)">
<path d="M11.1524 6.32419C11.8749 6.88424 15.4717 3.48494 19.186 -1.26835C22.9003 -6.02163 25.3256 -10.3289 24.6031 -10.889C23.8806 -11.449 20.2838 -8.04973 16.5695 -3.29645C12.8552 1.45684 10.4299 5.76414 11.1524 6.32419Z" fill="#7E14FF"/>
</g>
<g filter="url(#filter10_f_2_112)">
<path d="M13.3464 5.23083C14.3255 5.98975 16.119 5.32549 17.3524 3.74716C18.5857 2.16884 18.7918 0.274127 17.8127 -0.484794C16.8336 -1.24372 15.0401 -0.579462 13.8067 0.998862C12.5734 2.57719 12.3673 4.4719 13.3464 5.23083Z" fill="#47BFFF"/>
</g>
<g filter="url(#filter11_f_2_112)">
<path d="M-7.43258 22.9686C-6.71005 23.5287 -3.11328 20.1294 0.601036 15.3761C4.31535 10.6228 6.74067 6.31552 6.01814 5.75548C5.29562 5.19543 1.69885 8.59473 -2.01547 13.348C-5.72978 18.1013 -8.1551 22.4086 -7.43258 22.9686Z" fill="#7E14FF"/>
</g>
<g filter="url(#filter12_f_2_112)">
<path d="M-7.43258 22.9686C-6.71005 23.5287 -3.11328 20.1294 0.601036 15.3761C4.31535 10.6228 6.74067 6.31552 6.01814 5.75548C5.29562 5.19543 1.69885 8.59473 -2.01547 13.348C-5.72978 18.1013 -8.1551 22.4086 -7.43258 22.9686Z" fill="#7E14FF"/>
</g>
<g filter="url(#filter13_f_2_112)">
<path d="M6.6866 19.812C7.40912 20.372 11.0059 16.9727 14.7202 12.2194C18.4345 7.46614 20.8598 3.15883 20.1373 2.59878C19.4148 2.03874 15.818 5.43803 12.1037 10.1913C8.38939 14.9446 5.96407 19.2519 6.6866 19.812Z" fill="#7E14FF"/>
</g>
<g filter="url(#filter14_f_2_112)">
<path d="M10.9179 16.6627C11.897 17.4216 14.2731 16.0117 16.2252 13.5137C18.1772 11.0156 18.9659 8.3753 17.9868 7.61638C17.0077 6.85746 14.6316 8.26732 12.6795 10.7654C10.7275 13.2635 9.93876 15.9038 10.9179 16.6627Z" fill="#47BFFF"/>
</g>
</g>
</g>
<defs>
<filter id="filter0_f_2_112" x="-6.58531" y="6.87931" width="20.8852" height="13.9495" filterUnits="userSpaceOnUse" color-interpolation-filters="sRGB">
<feFlood flood-opacity="0" result="BackgroundImageFix"/>
<feBlend mode="normal" in="SourceGraphic" in2="BackgroundImageFix" result="shape"/>
<feGaussianBlur stdDeviation="2.45548" result="effect1_foregroundBlur_2_112"/>
</filter>
<filter id="filter1_f_2_112" x="-19.6936" y="-1.99392" width="32.2817" height="17.6151" filterUnits="userSpaceOnUse" color-interpolation-filters="sRGB">
<feFlood flood-opacity="0" result="BackgroundImageFix"/>
<feBlend mode="normal" in="SourceGraphic" in2="BackgroundImageFix" result="shape"/>
<feGaussianBlur stdDeviation="2.45548" result="effect1_foregroundBlur_2_112"/>
</filter>
<filter id="filter2_f_2_112" x="-18.1637" y="1.25783" width="28.831" height="10.0213" filterUnits="userSpaceOnUse" color-interpolation-filters="sRGB">
<feFlood flood-opacity="0" result="BackgroundImageFix"/>
<feBlend mode="normal" in="SourceGraphic" in2="BackgroundImageFix" result="shape"/>
<feGaussianBlur stdDeviation="1.47329" result="effect1_foregroundBlur_2_112"/>
</filter>
<filter id="filter3_f_2_112" x="-16.4345" y="8.00157" width="28.9151" height="10.0213" filterUnits="userSpaceOnUse" color-interpolation-filters="sRGB">
<feFlood flood-opacity="0" result="BackgroundImageFix"/>
<feBlend mode="normal" in="SourceGraphic" in2="BackgroundImageFix" result="shape"/>
<feGaussianBlur stdDeviation="1.47329" result="effect1_foregroundBlur_2_112"/>
</filter>
<filter id="filter4_f_2_112" x="-15.8581" y="8.43202" width="28.9151" height="10.0213" filterUnits="userSpaceOnUse" color-interpolation-filters="sRGB">
<feFlood flood-opacity="0" result="BackgroundImageFix"/>
<feBlend mode="normal" in="SourceGraphic" in2="BackgroundImageFix" result="shape"/>
<feGaussianBlur stdDeviation="1.47329" result="effect1_foregroundBlur_2_112"/>
</filter>
<filter id="filter5_f_2_112" x="6.7797" y="-5.87837" width="26.4168" height="20.3934" filterUnits="userSpaceOnUse" color-interpolation-filters="sRGB">
<feFlood flood-opacity="0" result="BackgroundImageFix"/>
<feBlend mode="normal" in="SourceGraphic" in2="BackgroundImageFix" result="shape"/>
<feGaussianBlur stdDeviation="2.45548" result="effect1_foregroundBlur_2_112"/>
</filter>
<filter id="filter6_f_2_112" x="9.36961" y="1.35275" width="22.0679" height="8.50838" filterUnits="userSpaceOnUse" color-interpolation-filters="sRGB">
<feFlood flood-opacity="0" result="BackgroundImageFix"/>
<feBlend mode="normal" in="SourceGraphic" in2="BackgroundImageFix" result="shape"/>
<feGaussianBlur stdDeviation="1.47329" result="effect1_foregroundBlur_2_112"/>
</filter>
<filter id="filter7_f_2_112" x="9.36961" y="1.35275" width="22.0679" height="8.50838" filterUnits="userSpaceOnUse" color-interpolation-filters="sRGB">
<feFlood flood-opacity="0" result="BackgroundImageFix"/>
<feBlend mode="normal" in="SourceGraphic" in2="BackgroundImageFix" result="shape"/>
<feGaussianBlur stdDeviation="1.47329" result="effect1_foregroundBlur_2_112"/>
</filter>
<filter id="filter8_f_2_112" x="-9.88574" y="-8.06538" width="20.0619" height="22.8536" filterUnits="userSpaceOnUse" color-interpolation-filters="sRGB">
<feFlood flood-opacity="0" result="BackgroundImageFix"/>
<feBlend mode="normal" in="SourceGraphic" in2="BackgroundImageFix" result="shape"/>
<feGaussianBlur stdDeviation="1.47329" result="effect1_foregroundBlur_2_112"/>
</filter>
<filter id="filter9_f_2_112" x="8.07846" y="-13.8959" width="19.5986" height="23.2271" filterUnits="userSpaceOnUse" color-interpolation-filters="sRGB">
<feFlood flood-opacity="0" result="BackgroundImageFix"/>
<feBlend mode="normal" in="SourceGraphic" in2="BackgroundImageFix" result="shape"/>
<feGaussianBlur stdDeviation="1.47329" result="effect1_foregroundBlur_2_112"/>
</filter>
<filter id="filter10_f_2_112" x="9.78157" y="-3.74532" width="11.596" height="12.2367" filterUnits="userSpaceOnUse" color-interpolation-filters="sRGB">
<feFlood flood-opacity="0" result="BackgroundImageFix"/>
<feBlend mode="normal" in="SourceGraphic" in2="BackgroundImageFix" result="shape"/>
<feGaussianBlur stdDeviation="1.47329" result="effect1_foregroundBlur_2_112"/>
</filter>
<filter id="filter11_f_2_112" x="-10.5065" y="2.74853" width="19.5986" height="23.2271" filterUnits="userSpaceOnUse" color-interpolation-filters="sRGB">
<feFlood flood-opacity="0" result="BackgroundImageFix"/>
<feBlend mode="normal" in="SourceGraphic" in2="BackgroundImageFix" result="shape"/>
<feGaussianBlur stdDeviation="1.47329" result="effect1_foregroundBlur_2_112"/>
</filter>
<filter id="filter12_f_2_112" x="-10.5065" y="2.74853" width="19.5986" height="23.2271" filterUnits="userSpaceOnUse" color-interpolation-filters="sRGB">
<feFlood flood-opacity="0" result="BackgroundImageFix"/>
<feBlend mode="normal" in="SourceGraphic" in2="BackgroundImageFix" result="shape"/>
<feGaussianBlur stdDeviation="1.47329" result="effect1_foregroundBlur_2_112"/>
</filter>
<filter id="filter13_f_2_112" x="3.61267" y="-0.408164" width="19.5986" height="23.2271" filterUnits="userSpaceOnUse" color-interpolation-filters="sRGB">
<feFlood flood-opacity="0" result="BackgroundImageFix"/>
<feBlend mode="normal" in="SourceGraphic" in2="BackgroundImageFix" result="shape"/>
<feGaussianBlur stdDeviation="1.47329" result="effect1_foregroundBlur_2_112"/>
</filter>
<filter id="filter14_f_2_112" x="7.55073" y="4.46442" width="13.8032" height="15.3502" filterUnits="userSpaceOnUse" color-interpolation-filters="sRGB">
<feFlood flood-opacity="0" result="BackgroundImageFix"/>
<feBlend mode="normal" in="SourceGraphic" in2="BackgroundImageFix" result="shape"/>
<feGaussianBlur stdDeviation="1.47329" result="effect1_foregroundBlur_2_112"/>
</filter>
<clipPath id="clip0_2_112">
<rect width="18" height="17" fill="white"/>
</clipPath>
</defs>
</svg>
