<svg width="258" height="258" viewBox="0 0 258 258" fill="none" xmlns="http://www.w3.org/2000/svg">
<g clip-path="url(#clip0_4_2)">
<path d="M96.6289 200.234C96.6289 200.234 86.4024 206.084 103.203 208.277C122.926 210.471 133.152 209.74 155.066 206.084C155.066 206.084 160.91 209.74 168.945 212.665C120.004 233.87 57.1836 211.202 96.6289 200.234ZM90.0547 173.179C90.0547 173.179 79.0977 181.223 95.8984 182.685C117.082 184.879 133.883 184.879 163.102 179.76C163.102 179.76 167.484 183.416 174.059 185.61C114.16 203.159 47.6875 187.072 90.0547 173.179Z" fill="#5382A1"/>
<path d="M141.188 126.382C153.605 140.275 138.266 152.705 138.266 152.705C138.266 152.705 168.945 136.619 154.336 116.876C141.188 97.8642 130.961 89.0896 186.477 56.9162C186.477 56.9162 99.5508 78.1214 141.188 126.382Z" fill="#E76F00"/>
<path d="M206.199 220.708C206.199 220.708 213.504 226.558 198.895 231.676C170.406 240.451 79.8281 242.645 54.9922 231.676C46.2266 228.02 63.0273 222.171 68.1406 221.439L76.9063 219.977C66.6797 213.396 11.8945 233.87 49.1484 240.451C149.953 256.538 232.496 233.139 206.199 220.708ZM101.012 143.931C101.012 143.931 54.9922 154.899 84.9414 159.286C97.3594 160.749 122.195 160.749 145.57 158.555C164.562 157.093 183.555 153.436 183.555 153.436L171.867 160.017C125.117 171.717 35.2695 165.867 61.5664 153.436C83.4805 143.199 101.012 143.931 101.012 143.931ZM183.555 189.997C230.305 165.867 208.391 141.737 193.051 145.393L187.937 146.856C187.937 146.856 189.398 144.662 192.32 143.199C222.27 132.962 245.645 174.642 182.094 191.46L183.555 189.997Z" fill="#5382A1"/>
<path d="M154.336 5C154.336 5 180.633 31.3237 129.5 71.5405C88.5938 104.445 120.734 122.725 129.5 143.931C106.125 121.994 88.5938 102.983 100.281 85.4335C117.082 59.841 165.293 46.6792 154.336 5Z" fill="#E76F00"/>
<path d="M105.395 257.269C150.684 260.194 220.809 255.075 222.27 233.87C222.27 233.87 219.348 241.913 185.016 248.494C146.301 255.806 98.0898 255.075 69.6016 249.957C69.6016 249.957 75.4453 255.075 105.395 257.269Z" fill="#5382A1"/>
</g>
<defs>
<clipPath id="clip0_4_2">
<rect width="187" height="253" fill="white" transform="translate(36 5)"/>
</clipPath>
</defs>
</svg>
