<svg width="258" height="258" viewBox="0 0 258 258" fill="none" xmlns="http://www.w3.org/2000/svg">
<path d="M152.009 28.7565C141.133 15.9095 131.767 2.86053 129.854 0.150527C129.808 0.102944 129.753 0.0650768 129.693 0.0392068C129.632 0.0133368 129.567 0 129.501 0C129.435 0 129.37 0.0133368 129.31 0.0392068C129.249 0.0650768 129.194 0.102944 129.149 0.150527C127.236 2.86053 117.869 15.9085 106.994 28.7555C13.6407 147.292 121.697 227.287 121.697 227.287L122.603 227.889C123.409 240.235 125.423 258 125.423 258H133.479C133.479 258 135.493 240.335 136.299 227.889L137.205 227.187C137.306 227.187 245.362 147.292 152.009 28.7555V28.7565ZM129.45 225.481C129.45 225.481 124.616 221.366 123.307 219.258V219.058L129.147 89.9815C129.147 89.5805 129.752 89.5805 129.752 89.9815L135.593 219.058V219.258C134.283 221.366 129.45 225.481 129.45 225.481Z" fill="#1EE261"/>
</svg>
