<svg width="534" height="534" viewBox="0 0 534 534" fill="none" xmlns="http://www.w3.org/2000/svg">
<path d="M490.667 0.0478348H45.6667C39.931 -0.220832 34.1983 0.644176 28.7973 2.59384C23.3963 4.54351 18.433 7.53916 14.191 11.4092C9.94934 15.2795 6.51234 19.9485 4.07734 25.1485C1.64234 30.3488 0.256667 35.9782 0 41.7145V487.715C0.336 499.719 5.25533 511.142 13.7477 519.632C22.24 528.125 33.6613 533.045 45.6667 533.382H490.667C502.337 532.862 513.34 527.789 521.317 519.252C529.293 510.715 533.607 499.395 533.333 487.715V41.7145C533.43 36.1312 532.383 30.5875 530.26 25.4228C528.137 20.2585 524.98 15.5822 520.983 11.6805C516.99 7.77917 512.24 4.73518 507.027 2.73484C501.813 0.73451 496.247 -0.179832 490.667 0.0478348ZM166.667 444.715H89V207.049H166.667V444.715ZM129.667 171.048C124.247 171.237 118.847 170.303 113.805 168.305C108.764 166.307 104.19 163.288 100.371 159.438C96.552 155.587 93.5703 150.989 91.6137 145.931C89.6567 140.873 88.767 135.466 89 130.048C88.7603 124.571 89.668 119.105 91.665 114C93.662 108.895 96.704 104.264 100.596 100.403C104.488 96.5425 109.143 93.5382 114.264 91.5828C119.386 89.6272 124.859 88.7638 130.333 89.0478C135.753 88.8592 141.153 89.7928 146.195 91.7908C151.236 93.7888 155.81 96.8078 159.629 100.658C163.448 104.508 166.43 109.107 168.386 114.164C170.343 119.222 171.233 124.63 171 130.048C171.24 135.524 170.332 140.991 168.335 146.096C166.338 151.201 163.296 155.832 159.404 159.693C155.512 163.553 150.857 166.557 145.736 168.513C140.614 170.468 135.141 171.332 129.667 171.048ZM444.667 444.715H366.667V314.715C366.667 283.715 355.667 262.382 328 262.382C319.407 262.455 311.043 265.185 304.063 270.199C297.08 275.212 291.82 282.262 289 290.382C286.833 296.469 285.927 302.932 286.333 309.382V444.715H209.667V207.049H286.333V240.382C293.15 227.859 303.293 217.465 315.647 210.345C328 203.229 342.08 199.665 356.333 200.048C406.667 200.048 444.667 233.382 444.667 304.382V444.715Z" fill="#bababaff"/>
</svg>
